# xmcd CD database file generated by Grip 3.2.0
# 
# Track frame offsets:
#       150
#       41242
#       69447
#       94265
#       98262
#       122820
#       150530
#       154797
#       179597
#       195292
#       225985
#       261147
#       278982
#       286107
#       302857
# 
# Disc length: 4353 seconds
# 
# Revision: 6
# Processed by: cddbd v1.5.2PL0 Copyright (c) Steve Scherf et al.
# Submitted via: Grip 3.2.0
# 
DISCID=c310ff0f
DTITLE=Jimmy Witherspoon - Live At The Mint
DYEAR=1996
DGENRE=Blues
TTITLE0=Goin' Down Slow
TTITLE1=Big Boss Man
TTITLE2=Goin' To Chicago
TTITLE3=Intro
TTITLE4=Ain't Nobody's Business
TTITLE5=Trouble In Mind - Cherry Red
TTITLE6=Intro
TTITLE7=Past Forty Blues
TTITLE8=What A Wonderful World
TTITLE9=Whose Hat Is That - CC Rider
TTITLE10=Stormy Monday
TTITLE11=Money Is Getting Cheaper
TTITLE12=Intro
TTITLE13=SK Blues
TTITLE14=Nothin's Changed
EXTD=
EXTT0=
EXTT1=
EXTT2=
EXTT3=
EXTT4=
EXTT5=
EXTT6=
EXTT7=
EXTT8=
EXTT9=
EXTT10=
EXTT11=
EXTT12=
EXTT13=
EXTT14=
PLAYORDER=
